<?xml version="1.0" encoding="UTF-8" standalone="no"?>
<svg
   viewBox="0 0 24 24"
   width="64"
   height="64"
   fill="currentColor"
   version="1.1"
   id="svg1"
   sodipodi:docname="egg.svg"
   inkscape:version="1.4.2 (f4327f4, 2025-05-13)"
   xmlns:inkscape="http://www.inkscape.org/namespaces/inkscape"
   xmlns:sodipodi="http://sodipodi.sourceforge.net/DTD/sodipodi-0.dtd"
   xmlns="http://www.w3.org/2000/svg"
   xmlns:svg="http://www.w3.org/2000/svg">
  <defs
     id="defs1" />
  <sodipodi:namedview
     id="namedview1"
     pagecolor="#ffffff"
     bordercolor="#000000"
     borderopacity="0.25"
     inkscape:showpageshadow="2"
     inkscape:pageopacity="0.0"
     inkscape:pagecheckerboard="0"
     inkscape:deskcolor="#d1d1d1"
     showgrid="true"
     inkscape:zoom="11.578874"
     inkscape:cx="27.895632"
     inkscape:cy="22.627417"
     inkscape:window-width="2560"
     inkscape:window-height="1334"
     inkscape:window-x="-11"
     inkscape:window-y="-11"
     inkscape:window-maximized="1"
     inkscape:current-layer="svg1">
    <inkscape:grid
       id="grid1"
       units="px"
       originx="0"
       originy="0"
       spacingx="0.375"
       spacingy="0.375"
       empcolor="#0099e5"
       empopacity="0.30196078"
       color="#0099e5"
       opacity="0.14901961"
       empspacing="5"
       enabled="true"
       visible="true" />
  </sodipodi:namedview>
  <path
     d="M 12,2 C 17.5228,2 22,6.47715 22,12 22,17.5228 17.5228,22 12,22 6.47715,22 2,17.5228 2,12 2,6.47715 6.47715,2 12,2 Z m 0,2 c -4.41828,0 -8,3.58172 -8,8 0,4.4183 3.58172,8 8,8 4.4183,0 8,-3.5817 8,-8 0,-4.41828 -3.5817,-8 -8,-8 z"
     id="path1"
     sodipodi:nodetypes="ssssssssss" />
  <rect
     style="fill:#000000;stroke:#000000;stroke-width:0.387235;stroke-linecap:round;stroke-linejoin:round"
     id="rect1"
     width="2.4202163"
     height="13.766766"
     x="15.610717"
     y="-6.9855385"
     ry="1.2101082"
     transform="rotate(45.324611)" />
</svg>
